<?xml version="1.0" standalone="no"?>
<!DOCTYPE svg PUBLIC "-//W3C//DTD SVG 20010904//EN"
 "http://www.w3.org/TR/2001/REC-SVG-20010904/DTD/svg10.dtd">
<svg version="1.0" xmlns="http://www.w3.org/2000/svg"
 width="512.000000pt" height="512.000000pt" viewBox="0 0 512.000000 512.000000"
 preserveAspectRatio="xMidYMid meet">
<metadata>
Created by potrace 1.16, written by Peter Selinger 2001-2019
</metadata>
<g transform="translate(0.000000,512.000000) scale(0.100000,-0.100000)"
fill="#000000" stroke="none">
<path d="M465 5096 c-27 -12 -69 -43 -91 -68 -80 -87 -75 42 -72 -1663 l3
-1520 22 -40 c30 -55 88 -110 148 -137 49 -22 59 -23 403 -26 l352 -4 0 -792
c0 -787 0 -793 21 -820 24 -30 81 -36 115 -12 19 14 19 42 24 1313 l5 1298 28
57 c90 184 325 218 461 67 81 -90 76 -19 76 -1145 0 -724 3 -1010 11 -1028 23
-50 103 -57 134 -13 12 18 15 71 15 307 0 319 5 356 63 432 46 61 140 108 214
108 31 0 73 -5 93 -11 59 -18 130 -78 164 -139 l31 -55 5 -317 c6 -359 4 -353
81 -353 31 0 46 6 60 24 17 21 19 42 19 220 0 235 9 275 75 349 137 152 366
121 463 -63 26 -49 27 -56 32 -271 4 -162 9 -225 18 -237 34 -40 123 -23 136
25 3 13 6 57 6 98 1 91 20 140 77 191 81 73 184 79 276 16 88 -61 157 -42 157
42 0 32 -6 44 -37 71 -20 18 -62 45 -93 59 -48 23 -68 26 -155 26 -91 0 -106
-3 -167 -32 l-66 -31 -6 33 c-20 105 -129 237 -239 289 -76 35 -176 50 -259
36 -80 -12 -128 -32 -190 -75 l-46 -34 -26 53 c-74 152 -228 246 -401 246 -88
0 -185 -28 -243 -70 l-42 -30 0 85 0 84 1238 3 1237 3 50 23 c60 27 118 82
148 137 l22 40 3 1520 c3 1700 8 1571 -71 1661 -23 26 -63 57 -92 70 -48 23
-60 24 -267 24 -205 0 -219 -1 -238 -20 -24 -24 -27 -77 -6 -106 13 -17 31
-19 218 -24 225 -6 240 -9 278 -73 20 -31 20 -63 20 -1512 0 -1449 0 -1481
-20 -1512 -10 -18 -31 -40 -47 -50 -26 -17 -91 -18 -1250 -21 l-1223 -2 0 189
0 189 223 4 c220 3 223 3 279 31 61 30 105 74 140 140 l23 42 0 970 c0 965 0
970 -21 1016 -31 66 -78 114 -142 146 l-57 28 -845 0 c-807 0 -847 -1 -894
-19 -65 -25 -133 -88 -162 -151 l-24 -50 0 -697 0 -697 26 -20 c35 -28 67 -26
101 3 l28 24 5 685 5 686 30 31 c16 17 45 35 65 41 23 7 307 9 835 7 l800 -3
34 -24 c64 -46 61 0 61 -1001 0 -1001 3 -955 -61 -1001 -33 -23 -41 -24 -241
-27 l-208 -3 0 114 c0 108 1 114 23 125 44 21 138 103 192 169 64 77 135 216
160 313 22 86 32 416 16 529 -49 336 -290 600 -619 677 -98 23 -276 21 -377
-5 -249 -64 -462 -253 -554 -489 -46 -121 -53 -184 -49 -444 4 -220 6 -237 31
-313 43 -128 100 -219 199 -320 l88 -90 0 -132 0 -133 -155 0 c-174 0 -204 7
-248 59 -25 31 -27 39 -27 130 0 106 -12 156 -40 171 -31 16 -79 11 -100 -10
-18 -18 -20 -33 -20 -152 0 -119 3 -138 24 -184 28 -61 81 -115 144 -145 43
-21 64 -24 235 -27 l187 -4 0 -189 0 -189 -312 0 c-172 0 -331 5 -352 10 -22
5 -53 23 -70 40 l-31 30 -3 1493 c-2 1465 -2 1493 18 1524 10 18 31 40 47 50
26 17 107 18 1699 21 1666 2 1671 2 1690 23 23 26 23 82 -1 109 l-18 20 -1691
0 -1691 0 -50 -24z m1409 -993 c207 -51 377 -212 453 -428 27 -78 28 -85 28
-300 0 -216 0 -221 -29 -309 -35 -106 -105 -216 -179 -281 -28 -25 -54 -45
-57 -45 -3 1 -19 26 -37 56 l-32 55 52 52 c111 111 147 222 147 455 0 149 -1
154 -25 177 -15 16 -36 25 -55 25 -19 0 -40 -9 -55 -25 -24 -23 -25 -29 -25
-168 0 -208 -31 -294 -135 -377 -21 -17 -39 -30 -40 -30 -1 0 -28 9 -61 21
-70 25 -183 29 -264 9 l-54 -13 -47 51 c-28 31 -56 75 -69 109 -19 52 -21 73
-18 247 3 176 5 195 26 238 56 114 148 178 288 203 85 15 104 29 104 78 0 71
-37 91 -145 77 -193 -24 -358 -163 -415 -348 -17 -55 -20 -93 -20 -261 0 -152
4 -210 16 -252 23 -76 55 -137 103 -190 40 -46 40 -47 20 -65 -11 -10 -29 -33
-41 -53 l-22 -35 -57 62 c-65 71 -121 178 -143 272 -22 91 -22 429 0 520 26
113 79 206 169 296 173 175 386 236 619 177z"/>
<path d="M1648 3676 c-59 -21 -85 -42 -115 -93 -28 -47 -28 -50 -28 -213 0
-173 6 -199 54 -254 22 -26 82 -54 128 -62 84 -13 177 39 214 121 25 55 27
325 3 383 -23 56 -72 101 -128 117 -60 18 -80 18 -128 1z m90 -162 c21 -14 22
-22 22 -144 0 -126 -1 -130 -24 -145 -19 -13 -29 -14 -45 -6 -27 15 -34 58
-29 181 2 87 6 104 22 116 25 18 27 17 54 -2z"/>
<path d="M3215 4551 c-77 -19 -142 -79 -164 -150 -6 -23 -11 -114 -11 -227 0
-169 3 -194 21 -234 48 -105 100 -132 270 -138 158 -5 221 10 279 68 58 58 70
110 70 310 0 200 -12 252 -70 310 -54 54 -115 70 -254 69 -61 -1 -124 -4 -141
-8z m253 -157 c43 -12 52 -50 52 -213 0 -90 -5 -160 -11 -175 -18 -38 -56 -48
-169 -44 -143 4 -140 0 -140 220 0 166 0 169 25 193 22 23 31 25 122 25 54 0
108 -3 121 -6z"/>
<path d="M3955 4551 c-70 -18 -116 -55 -151 -121 -17 -31 -19 -59 -19 -250 0
-191 2 -219 19 -250 26 -49 55 -79 101 -103 36 -20 56 -22 190 -22 141 0 153
2 200 25 65 34 111 100 120 174 4 30 5 130 4 223 -4 169 -4 170 -34 219 -19
30 -49 60 -79 79 -47 29 -53 30 -185 32 -75 1 -149 -1 -166 -6z m282 -174 c16
-16 18 -38 18 -197 0 -227 9 -215 -156 -215 -164 0 -159 -7 -159 212 0 97 4
172 11 184 17 32 47 39 161 36 88 -2 111 -5 125 -20z"/>
<path d="M3215 3741 c-74 -18 -121 -59 -154 -131 -18 -40 -21 -65 -21 -234 0
-113 5 -204 11 -227 16 -50 61 -105 112 -132 38 -20 56 -22 197 -22 151 0 156
1 202 28 98 57 118 117 118 347 0 200 -12 252 -70 310 -54 54 -115 70 -254 69
-61 -1 -124 -4 -141 -8z m258 -162 c40 -18 47 -49 47 -210 0 -163 -9 -201 -52
-213 -13 -3 -67 -6 -121 -6 -91 0 -100 2 -122 25 -25 24 -25 27 -25 190 0 174
5 200 43 215 32 13 202 12 230 -1z"/>
<path d="M3955 3741 c-70 -18 -116 -55 -151 -121 -17 -31 -19 -59 -19 -250 0
-191 2 -219 19 -250 26 -49 55 -79 101 -103 36 -20 55 -22 196 -22 l156 0 49
30 c30 19 60 49 79 79 30 49 30 50 34 219 1 93 0 193 -4 223 -9 74 -55 140
-120 174 -45 23 -62 25 -180 27 -71 1 -143 -2 -160 -6z m282 -174 c16 -16 18
-38 18 -197 0 -225 8 -214 -150 -218 -111 -4 -115 -3 -140 22 -25 25 -25 27
-25 191 0 99 4 174 11 186 17 32 47 39 161 36 88 -2 111 -5 125 -20z"/>
<path d="M3215 2931 c-75 -19 -121 -59 -154 -131 -18 -40 -21 -65 -21 -234 0
-113 5 -204 11 -227 16 -50 61 -105 112 -132 38 -20 56 -22 197 -22 151 0 156
1 202 28 98 57 118 117 118 347 0 234 -24 301 -127 351 -42 20 -65 24 -178 26
-71 1 -143 -1 -160 -6z m259 -162 c41 -19 48 -53 44 -227 -4 -204 3 -196 -153
-200 -111 -4 -115 -3 -140 22 -25 25 -25 27 -25 191 0 174 5 200 43 215 32 13
202 12 231 -1z"/>
<path d="M3951 2931 c-52 -14 -113 -62 -141 -111 -25 -44 -25 -49 -25 -260 0
-191 2 -219 19 -250 26 -49 55 -79 101 -103 36 -20 55 -22 196 -22 l156 0 49
30 c30 19 60 49 79 79 30 49 30 50 34 219 1 93 0 193 -4 223 -9 74 -55 140
-119 173 -45 23 -63 26 -180 28 -72 1 -146 -2 -165 -6z m269 -166 c38 -20 42
-45 38 -233 -4 -193 2 -186 -153 -190 -111 -4 -115 -3 -140 22 -25 25 -25 27
-25 191 0 174 5 200 43 215 38 15 205 12 237 -5z"/>
<path d="M4050 700 c-19 -19 -20 -33 -20 -340 0 -307 1 -321 20 -340 28 -28
90 -27 116 1 18 20 19 40 19 341 l0 320 -24 19 c-31 25 -85 25 -111 -1z"/>
</g>
</svg>
