<?xml version="1.0" standalone="no"?>
<!DOCTYPE svg PUBLIC "-//W3C//DTD SVG 20010904//EN"
 "http://www.w3.org/TR/2001/REC-SVG-20010904/DTD/svg10.dtd">
<svg version="1.0" xmlns="http://www.w3.org/2000/svg"
 width="512.000000pt" height="512.000000pt" viewBox="0 0 512.000000 512.000000"
 preserveAspectRatio="xMidYMid meet">

<g transform="translate(0.000000,512.000000) scale(0.100000,-0.100000)"
fill="#000000" stroke="none">
<path d="M1641 4944 c-253 -68 -410 -331 -346 -579 67 -256 329 -415 580 -350
256 67 415 329 350 578 -67 259 -333 419 -584 351z m270 -185 c67 -36 98 -68
137 -143 22 -43 26 -64 26 -136 1 -78 -2 -90 -33 -148 -38 -70 -70 -100 -145
-140 -43 -22 -64 -26 -136 -26 -72 0 -93 4 -136 26 -75 40 -107 70 -145 140
-31 58 -34 70 -33 148 0 100 24 160 89 225 100 100 249 121 376 54z"/>
<path d="M2345 4935 c-16 -15 -25 -36 -25 -55 0 -19 9 -40 25 -55 l24 -25
1216 0 1215 0 0 -2240 0 -2240 -1114 0 -1115 0 -5 43 c-3 23 -22 276 -42 562
-32 462 -38 528 -59 590 -13 39 -105 221 -204 406 l-180 337 34 521 c44 657
43 647 17 674 -30 29 -88 29 -113 -1 -24 -30 -23 -24 -65 -668 l-35 -562 190
-355 c105 -196 197 -378 206 -404 18 -57 98 -1144 88 -1210 -5 -36 -2 -45 20
-67 l26 -26 1231 0 1231 0 24 25 25 24 0 2351 0 2351 -25 24 -24 25 -1271 0
-1271 0 -24 -25z"/>
<path d="M3865 4615 c-16 -15 -25 -35 -25 -56 0 -27 16 -48 102 -135 l102
-104 -638 0 -637 0 -24 -25 c-16 -15 -25 -36 -25 -55 0 -19 9 -40 25 -55 l24
-25 637 0 638 0 -102 -104 c-86 -87 -102 -108 -102 -135 0 -43 38 -81 82 -81
29 0 53 20 215 183 166 166 183 186 183 217 0 31 -17 51 -183 217 -162 163
-186 183 -215 183 -22 0 -41 -9 -57 -25z"/>
<path d="M1220 3913 c-73 -26 -772 -342 -797 -360 -72 -53 -79 -70 -175 -450
-99 -395 -101 -416 -53 -498 65 -112 199 -148 316 -87 90 47 102 73 183 388
l72 278 169 52 c93 29 171 51 173 49 2 -2 -10 -203 -27 -447 -27 -401 -29
-450 -17 -518 26 -142 66 -208 240 -393 61 -65 110 -123 108 -130 -2 -7 -127
-359 -278 -784 -293 -826 -286 -800 -232 -837 12 -9 32 -16 45 -16 54 0 61 16
328 770 142 399 260 729 265 733 12 14 296 -298 324 -357 17 -37 48 -170 101
-437 42 -211 89 -449 104 -529 32 -157 45 -180 103 -180 35 0 78 39 78 72 0
13 -46 257 -103 543 -109 550 -124 602 -196 693 -16 21 -171 188 -345 372
-338 358 -367 396 -385 510 -7 40 0 193 25 550 19 272 34 503 34 513 0 27 -45
67 -76 67 -24 0 -410 -116 -519 -155 -22 -8 -45 -23 -51 -32 -6 -10 -44 -148
-84 -306 -44 -174 -81 -299 -93 -313 -27 -35 -88 -34 -116 2 -12 15 -21 34
-21 43 0 36 170 685 182 697 7 7 182 87 390 179 l376 167 390 -36 c302 -28
402 -40 444 -56 102 -38 139 -77 340 -360 104 -146 199 -270 211 -277 17 -9
84 -4 316 24 l293 35 26 -19 c22 -16 27 -28 27 -63 0 -34 -5 -46 -25 -61 -17
-12 -123 -36 -330 -74 -168 -30 -316 -55 -329 -55 -18 0 -57 32 -141 115 -123
121 -142 131 -188 99 -31 -22 -44 -58 -32 -90 6 -14 56 -73 112 -131 113 -116
172 -153 247 -153 24 0 190 27 370 60 275 51 333 65 371 88 102 62 139 198 85
308 -31 62 -84 107 -149 125 -34 10 -87 6 -310 -20 -148 -18 -272 -29 -276
-24 -4 4 -80 109 -168 233 -161 227 -230 305 -312 352 -96 56 -147 66 -555
103 -388 35 -437 38 -465 28z"/>
<path d="M4160 2867 c-49 -16 -133 -102 -148 -153 -28 -94 -8 -169 63 -239
101 -102 229 -102 330 0 98 97 101 222 8 325 -65 72 -158 97 -253 67z m135
-172 c16 -15 25 -36 25 -55 0 -19 -9 -40 -25 -55 -15 -16 -36 -25 -55 -25 -19
0 -40 9 -55 25 -16 15 -25 36 -25 55 0 19 9 40 25 55 15 16 36 25 55 25 19 0
40 -9 55 -25z"/>
<path d="M996 1928 c-22 -20 -54 -129 -246 -842 -121 -450 -220 -833 -220
-851 0 -24 7 -39 26 -54 34 -27 67 -27 98 2 22 19 53 124 246 840 121 450 220
833 220 852 0 24 -7 39 -26 54 -34 27 -67 27 -98 -1z"/>
</g>
</svg>
